<svg width="264" height="96" viewBox="0 0 264 96" fill="none" xmlns="http://www.w3.org/2000/svg">
<path d="M22.5471 88.5066C19.5753 92.7705 15.6021 94.9025 10.6275 94.9025C7.59104 94.9025 5.20066 94.4826 3.45632 93.6427C1.58277 92.8674 0.645996 91.866 0.645996 90.6385C0.645996 89.4756 1.03363 88.3128 1.80889 87.1499C2.51954 86.0516 3.29481 85.5024 4.13467 85.5024C6.26664 85.5024 7.91407 86.3746 9.07696 88.1189C10.2399 89.9279 11.7258 90.8324 13.5347 90.8324C17.7987 90.8324 19.9306 85.7286 19.9306 75.5209V22.1248C19.9306 19.9282 19.4461 18.3454 18.477 17.3763C17.5725 16.4073 15.9897 15.6966 13.7285 15.2444C11.4674 14.8567 10.3368 14.2107 10.3368 13.3062C10.3368 12.5956 11.2735 12.2402 13.1471 12.2402L24.4853 12.531L33.5946 12.2402C35.4681 12.2402 36.4049 12.5956 36.4049 13.3062C36.4049 14.2107 35.3066 14.8567 33.1101 15.2444C30.9135 15.6966 29.4599 16.375 28.7492 17.2794C28.0386 18.1839 27.6832 19.799 27.6832 22.1248V61.7601C27.6832 71.4508 27.1341 78.0405 26.0358 81.5292C25.6482 82.8213 25.2928 83.7904 24.9698 84.4365C24.7114 85.1471 24.3884 85.7609 24.0007 86.2777C23.6777 86.7945 23.1932 87.5375 22.5471 88.5066Z" fill="white"/>
<path fill-rule="evenodd" clip-rule="evenodd" d="M23.081 88.871L23.0772 88.8765C19.991 93.3046 15.8244 95.5491 10.6275 95.5491C7.55259 95.5491 5.05824 95.127 3.19253 94.2332C1.26113 93.4303 0 92.2707 0 90.6391C0 89.3261 0.439026 88.0418 1.269 86.7956C2.02873 85.623 2.97402 84.8569 4.13473 84.8569C6.47829 84.8569 8.32943 85.8334 9.61457 87.7611L9.61755 87.7656L9.62046 87.7701C10.6905 89.4347 11.9898 90.1868 13.5348 90.1868C14.461 90.1868 15.2501 89.9135 15.93 89.371C16.62 88.8204 17.2303 87.9656 17.7356 86.756C18.7515 84.3241 19.2846 80.5998 19.2846 75.5215V22.1254C19.2846 20.0008 18.8125 18.626 18.0202 17.8337L18.0124 17.8258L18.0048 17.8177C17.2397 16.998 15.8213 16.3233 13.6105 15.8801C12.4574 15.6819 11.5251 15.4083 10.8642 15.0306C10.1957 14.6486 9.69077 14.0851 9.69077 13.3068C9.69077 12.9724 9.80628 12.6653 10.0272 12.4139C10.2366 12.1756 10.5157 12.015 10.8103 11.9032C11.3904 11.6832 12.188 11.5947 13.1471 11.5947H13.1554L24.4833 11.8852L33.5844 11.5947H33.5947C34.5538 11.5947 35.3514 11.6832 35.9315 11.9032C36.2261 12.015 36.5052 12.1756 36.7146 12.4139C36.9355 12.6653 37.051 12.9724 37.051 13.3068C37.051 14.0757 36.5657 14.6401 35.9088 15.0265C35.263 15.4064 34.3534 15.6809 33.2316 15.8795C31.068 16.326 29.8171 16.9666 29.2573 17.6791C28.6905 18.4005 28.3293 19.8206 28.3293 22.1254V61.7606C28.3293 71.4394 27.7846 78.1225 26.6534 81.7196C26.2693 82.9996 25.9072 83.9981 25.5643 84.6925C25.2934 85.4289 24.9518 86.0817 24.5344 86.6434C24.2064 87.1672 23.7225 87.9089 23.0847 88.8655L23.081 88.871ZM24.0008 86.2782C24.3884 85.7614 24.7115 85.1477 24.9699 84.437C25.2929 83.7909 25.6482 82.8219 26.0359 81.5298C27.1341 78.0411 27.6833 71.4514 27.6833 61.7606V22.1254C27.6833 19.7996 28.0386 18.1845 28.7493 17.28C29.4599 16.3755 30.9135 15.6972 33.1101 15.2449C35.3067 14.8573 36.405 14.2112 36.405 13.3068C36.405 12.5961 35.4682 12.2408 33.5947 12.2408L24.4853 12.5315L13.1471 12.2408C11.2736 12.2408 10.3368 12.5961 10.3368 13.3068C10.3368 14.2112 11.4674 14.8573 13.7286 15.2449C15.9898 15.6972 17.5726 16.4078 18.4771 17.3769C19.4461 18.346 19.9307 19.9288 19.9307 22.1254V75.5215C19.9307 85.7291 17.7987 90.8329 13.5348 90.8329C11.7258 90.8329 10.2399 89.9284 9.07702 88.1195C7.91413 86.3752 6.2667 85.503 4.13473 85.503C3.29486 85.503 2.5196 86.0521 1.80894 87.1504C1.03368 88.3133 0.646051 89.4762 0.646051 90.6391C0.646051 91.8666 1.58283 92.868 3.45637 93.6432C5.20071 94.4831 7.5911 94.903 10.6275 94.903C15.6021 94.903 19.5753 92.771 22.5472 88.5071C23.1932 87.538 23.6778 86.7951 24.0008 86.2782Z" fill="white"/>
<path d="M101.518 66.5081C98.8688 69.6738 95.4447 72.1934 91.2454 74.0669C87.0461 75.9405 82.3945 76.8772 77.2907 76.8772C72.9622 76.8772 68.8274 76.0697 64.8865 74.4545C60.9456 72.7748 57.4569 70.449 54.4205 67.4772C51.384 64.5054 48.9937 61.0813 47.2493 57.205C45.505 53.2641 44.6328 49.0324 44.6328 44.5101C44.6328 38.5018 45.8603 33.0427 48.3153 28.1327C50.8349 23.1581 54.6789 19.088 59.8473 15.9223C64.9511 12.7567 71.024 11.1738 78.066 11.1738C82.3945 11.1738 86.4646 11.9491 90.2763 13.4996C94.1526 15.0501 97.5444 17.279 100.452 20.1862C103.359 23.0289 105.652 26.3883 107.332 30.2646C109.012 34.1409 109.852 38.4049 109.852 43.0565C109.852 52.1658 107.074 59.983 101.518 66.5081ZM54.0329 42.5719C54.0329 46.5128 54.6466 50.3245 55.8741 54.007C57.1016 57.6249 58.8136 60.8875 61.0102 63.7947C63.2714 66.6373 65.8879 68.8985 68.8597 70.5782C71.8962 72.258 75.1587 73.0978 78.6474 73.0978C85.6894 73.0978 91.0839 70.7074 94.831 65.9267C98.5781 61.0813 100.452 54.1685 100.452 45.1884C100.452 39.2447 99.5149 34.0117 97.6413 29.4894C95.7678 24.9024 93.0866 21.3491 89.598 18.8295C86.1739 16.2453 82.0392 14.9532 77.1938 14.9532C72.413 14.9532 68.2783 16.1807 64.7896 18.6357C61.3009 21.0261 58.6198 24.321 56.7463 28.5203C54.9373 32.655 54.0329 37.3389 54.0329 42.5719Z" fill="white"/>
<path fill-rule="evenodd" clip-rule="evenodd" d="M64.6327 75.0495L64.6328 75.0494C60.6186 73.3384 57.0625 70.9679 53.9682 67.9394C50.8741 64.9112 48.4371 61.4204 46.6597 57.4706L46.6581 57.467C44.8755 53.4397 43.9863 49.1185 43.9863 44.5106C43.9863 38.4117 45.2331 32.8522 47.737 27.8443L47.7385 27.8413C50.3166 22.7512 54.2474 18.5953 59.5079 15.3729C64.7302 12.1342 70.925 10.5283 78.0655 10.5283C82.4725 10.5283 86.6251 11.3179 90.5176 12.901C94.472 14.4831 97.9364 16.759 100.905 19.7274C103.874 22.6303 106.213 26.0593 107.924 30.0083C109.643 33.9736 110.497 38.326 110.497 43.057C110.497 52.3084 107.672 60.2762 102.011 66.9255C99.2923 70.1737 95.7859 72.7489 91.5082 74.6574C87.2173 76.5718 82.4747 77.5238 77.2903 77.5238C72.8791 77.5238 68.661 76.7004 64.6411 75.0529L64.6327 75.0495ZM101.517 66.5086C98.8684 69.6743 95.4443 72.1939 91.245 74.0674C87.0456 75.941 82.3941 76.8778 77.2903 76.8778C72.9617 76.8778 68.827 76.0702 64.8861 74.4551C60.9452 72.7753 57.4565 70.4496 54.4201 67.4777C51.3836 64.5059 48.9932 61.0818 47.2489 57.2055C45.5045 53.2646 44.6324 49.033 44.6324 44.5106C44.6324 38.5023 45.8599 33.0432 48.3149 28.1332C50.8345 23.1586 54.6785 19.0885 59.8469 15.9228C64.9507 12.7572 71.0236 11.1744 78.0655 11.1744C82.3941 11.1744 86.4642 11.9496 90.2759 13.5002C94.1522 15.0507 97.544 17.2796 100.451 20.1868C103.358 23.0294 105.652 26.3889 107.332 30.2652C109.011 34.1415 109.851 38.4054 109.851 43.057C109.851 52.1663 107.073 59.9835 101.517 66.5086ZM97.044 29.7372L97.0428 29.7342C95.2079 25.2418 92.5959 21.7925 89.2193 19.3538L89.2138 19.3498L89.2084 19.3457C85.9107 16.857 81.9174 15.5998 77.1934 15.5998C72.5289 15.5998 68.5279 16.7953 65.161 19.1646L65.1544 19.1693L65.1543 19.1692C61.7732 21.4859 59.1661 24.6827 57.3368 28.782C55.5694 32.8225 54.6785 37.4154 54.6785 42.5725C54.6785 46.4444 55.2812 50.1864 56.486 53.8014C57.6914 57.3539 59.37 60.5518 61.5204 63.3993C63.7314 66.1774 66.2829 68.38 69.1747 70.015C72.1141 71.6404 75.2681 72.4523 78.647 72.4523C85.5252 72.4523 90.7166 70.1277 94.3208 65.5303C97.947 60.8402 99.8051 54.0892 99.8051 45.189C99.8051 39.3124 98.8789 34.1663 97.044 29.7372ZM94.8306 65.9272C91.0835 70.708 85.6889 73.0984 78.647 73.0984C75.1583 73.0984 71.8957 72.2585 68.8593 70.5788C65.8875 68.899 63.271 66.6379 61.0098 63.7952C58.8132 60.888 57.1012 57.6254 55.8737 54.0076C54.6462 50.3251 54.0324 46.5134 54.0324 42.5725C54.0324 37.3394 54.9369 32.6556 56.7458 28.5208C58.6194 24.3215 61.3005 21.0267 64.7892 18.6363C68.2779 16.1813 72.4126 14.9538 77.1934 14.9538C82.0387 14.9538 86.1735 16.2459 89.5975 18.8301C93.0862 21.3497 95.7673 24.903 97.6409 29.4899C99.5144 34.0123 100.451 39.2453 100.451 45.189C100.451 54.1691 98.5777 61.0818 94.8306 65.9272Z" fill="white"/>
<path d="M143.316 75.5209L130.234 76.0055C128.425 76.0055 127.521 75.6178 127.521 74.8426C127.521 74.1319 128.231 73.5828 129.652 73.1951C132.301 72.6783 134.272 71.9031 135.564 70.8694C136.856 69.8357 137.502 68.2852 137.502 66.2178V21.2527C137.502 18.9915 137.147 17.5379 136.436 16.8918C135.725 16.2458 134.207 15.6966 131.881 15.2444C129.556 14.8567 128.393 14.2107 128.393 13.3062C128.393 12.5956 129.329 12.2402 131.203 12.2402L142.057 12.531L154.267 12.2402C156.141 12.2402 157.077 12.5956 157.077 13.3062C157.077 14.2753 156.173 14.889 154.364 15.1475C152.555 15.4705 151.231 15.7289 150.391 15.9227C149.615 16.1165 148.743 16.4073 147.774 16.7949C146.094 17.5056 145.255 18.7654 145.255 20.5743V66.2178C145.255 68.3498 145.739 69.868 146.708 70.7725C147.677 71.6769 149.68 72.1292 152.716 72.1292H166.865C167.123 72.1292 167.931 71.8708 169.288 71.3539C172.647 69.9326 175.328 67.0577 177.331 62.7291C178.042 60.791 178.785 59.8219 179.56 59.8219C180.271 59.8219 180.626 60.4033 180.626 61.5662C180.561 61.6308 180.529 61.7277 180.529 61.857V62.0508C179.108 67.5422 178.236 71.6446 177.912 74.358C177.783 75.4563 177.331 76.0055 176.556 76.0055L143.316 75.5209Z" fill="white"/>
<path fill-rule="evenodd" clip-rule="evenodd" d="M176.556 76.006L143.317 75.5215L130.234 76.006C128.426 76.006 127.521 75.6184 127.521 74.8431C127.521 74.1325 128.232 73.5833 129.653 73.1957C132.302 72.6788 134.272 71.9036 135.564 70.8699C136.856 69.8362 137.503 68.2857 137.503 66.2183V21.2532C137.503 18.992 137.147 17.5384 136.437 16.8923C135.726 16.2463 134.208 15.6972 131.882 15.2449C129.556 14.8573 128.393 14.2112 128.393 13.3068C128.393 12.5961 129.33 12.2408 131.204 12.2408L142.057 12.5315L154.268 12.2408C156.141 12.2408 157.078 12.5961 157.078 13.3068C157.078 14.2758 156.173 14.8896 154.364 15.148C152.556 15.471 151.231 15.7295 150.391 15.9233C149.616 16.1171 148.744 16.4078 147.775 16.7954C146.095 17.5061 145.255 18.7659 145.255 20.5748V66.2183C145.255 68.3503 145.74 69.8685 146.709 70.773C147.678 71.6775 149.681 72.1297 152.717 72.1297H166.866C167.124 72.1297 167.932 71.8713 169.288 71.3545C172.648 69.9331 175.329 67.0582 177.332 62.7297C178.042 60.7915 178.785 59.8224 179.56 59.8224C180.271 59.8224 180.626 60.4039 180.626 61.5668C180.562 61.6314 180.53 61.7283 180.53 61.8575V62.0513C179.108 67.5427 178.236 71.6452 177.913 74.3586C177.784 75.4569 177.332 76.006 176.556 76.006ZM176.734 62.482C177.096 61.4995 177.483 60.7114 177.909 60.1562C178.332 59.6049 178.878 59.1764 179.56 59.1764C180.129 59.1764 180.61 59.4291 180.911 59.9216C181.181 60.3624 181.273 60.9405 181.273 61.5668V61.8344L181.176 61.9313V62.1336L181.155 62.2132C179.735 67.6997 178.872 71.7671 178.555 74.435C178.483 75.0439 178.313 75.5954 177.976 76.0049C177.615 76.443 177.117 76.6521 176.556 76.6521H176.552L143.324 76.1677L130.246 76.6521H130.234C129.304 76.6521 128.519 76.5553 127.945 76.3091C127.651 76.1831 127.38 76.0043 127.181 75.7485C126.975 75.4835 126.875 75.1725 126.875 74.8431C126.875 74.2361 127.191 73.7485 127.659 73.3871C128.111 73.0381 128.736 72.776 129.483 72.5724L129.506 72.5662L129.529 72.5616C132.133 72.0535 133.986 71.3052 135.161 70.3654C136.262 69.4844 136.856 68.1431 136.856 66.2183V21.2532C136.856 20.1509 136.769 19.2785 136.608 18.6205C136.446 17.9542 136.223 17.5709 136.002 17.3704C135.738 17.13 135.272 16.8662 134.545 16.6035C133.83 16.3448 132.907 16.1027 131.767 15.8807C130.583 15.6828 129.628 15.4099 128.952 15.0344C128.272 14.6567 127.747 14.0944 127.747 13.3068C127.747 12.9724 127.863 12.6653 128.084 12.4139C128.293 12.1756 128.572 12.015 128.867 11.9032C129.447 11.6832 130.244 11.5947 131.204 11.5947H131.212L142.058 11.8852L154.26 11.5947H154.268C155.227 11.5947 156.024 11.6832 156.604 11.9032C156.899 12.015 157.178 12.1756 157.388 12.4139C157.608 12.6653 157.724 12.9724 157.724 13.3068C157.724 14.0355 157.365 14.6193 156.762 15.0285C156.194 15.4142 155.407 15.6507 154.467 15.7859C152.67 16.107 151.364 16.362 150.542 16.5514C149.805 16.736 148.966 17.0152 148.021 17.3929C147.276 17.7089 146.758 18.128 146.423 18.6316C146.086 19.1362 145.901 19.7727 145.901 20.5748V66.2183C145.901 68.277 146.373 69.5755 147.15 70.3007C147.516 70.6431 148.134 70.9468 149.08 71.1603C150.018 71.3722 151.226 71.4837 152.717 71.4837H166.865C166.863 71.4837 166.862 71.4836 166.862 71.4836C166.861 71.483 166.903 71.4793 167.01 71.4534C167.123 71.4261 167.274 71.3827 167.468 71.3206C167.854 71.1972 168.379 71.0095 169.047 70.7549C172.207 69.4143 174.781 66.6925 176.734 62.482Z" fill="white"/>
<path d="M201.398 75.5209L188.993 76.0055C187.12 76.0055 186.183 75.6178 186.183 74.8426C186.183 74.1319 187.378 73.5505 189.769 73.0982C192.094 72.7106 193.871 72 195.099 70.9663C196.326 69.868 196.94 68.2206 196.94 66.024V22.2217C196.94 19.9605 196.455 18.3454 195.486 17.3763C194.582 16.4073 192.999 15.6966 190.738 15.2444C188.412 14.8567 187.249 14.2107 187.249 13.3062C187.249 12.5956 188.186 12.2402 190.059 12.2402L201.398 12.531L211.961 12.2402C213.834 12.2402 214.771 12.5956 214.771 13.3062C214.771 14.2107 213.608 14.8567 211.282 15.2444C208.956 15.6966 207.277 16.4396 206.243 17.4732C205.209 18.4423 204.692 20.0252 204.692 22.2217V66.024C204.692 68.2206 205.306 69.868 206.534 70.9663C207.826 72 209.667 72.7106 212.057 73.0982C214.383 73.5505 215.546 74.1319 215.546 74.8426C215.546 75.6178 214.609 76.0055 212.736 76.0055L201.398 75.5209Z" fill="white"/>
<path fill-rule="evenodd" clip-rule="evenodd" d="M189.006 76.6521H188.993C188.032 76.6521 187.226 76.5554 186.639 76.3123C186.339 76.1881 186.061 76.0117 185.856 75.7572C185.642 75.4923 185.537 75.1783 185.537 74.8431C185.537 74.0797 186.173 73.5967 186.797 73.2931C187.472 72.9646 188.436 72.6935 189.649 72.464L189.656 72.4627L189.663 72.4615C191.919 72.0854 193.568 71.4077 194.675 70.4789C195.719 69.5403 196.294 68.0971 196.294 66.0245V22.2223C196.294 20.0267 195.819 18.6231 195.029 17.8337L195.022 17.8258L195.014 17.8177C194.249 16.9982 192.831 16.3236 190.621 15.8804C189.437 15.6825 188.483 15.4097 187.808 15.0344C187.128 14.6567 186.603 14.0944 186.603 13.3068C186.603 12.9724 186.719 12.6653 186.939 12.4139C187.149 12.1756 187.428 12.015 187.723 11.9032C188.303 11.6832 189.1 11.5947 190.059 11.5947H190.068L201.397 11.8852L211.952 11.5947H211.961C212.92 11.5947 213.717 11.6832 214.297 11.9032C214.592 12.015 214.871 12.1756 215.081 12.4139C215.301 12.6653 215.417 12.9724 215.417 13.3068C215.417 14.0944 214.892 14.6567 214.213 15.0344C213.537 15.4099 212.582 15.6828 211.397 15.8807C209.131 16.3224 207.601 17.0296 206.7 17.9306L206.693 17.938L206.685 17.9451C205.838 18.7387 205.339 20.1075 205.339 22.2223V66.0245C205.339 68.0931 205.911 69.5348 206.951 70.4735C208.125 71.407 209.842 72.0851 212.161 72.4611L212.171 72.4627L212.181 72.4646C213.362 72.6944 214.303 72.9661 214.963 73.2962C215.578 73.6039 216.192 74.0888 216.192 74.8431C216.192 75.1783 216.087 75.4923 215.874 75.7572C215.669 76.0117 215.391 76.1881 215.091 76.3123C214.503 76.5554 213.698 76.6521 212.736 76.6521H212.722L201.397 76.1681L189.006 76.6521ZM201.398 75.5215L188.993 76.006C187.12 76.006 186.183 75.6184 186.183 74.8431C186.183 74.1325 187.378 73.551 189.769 73.0988C192.095 72.7112 193.871 72.0005 195.099 70.9668C196.326 69.8685 196.94 68.2211 196.94 66.0245V22.2223C196.94 19.9611 196.455 18.346 195.486 17.3769C194.582 16.4078 192.999 15.6972 190.738 15.2449C188.412 14.8573 187.249 14.2112 187.249 13.3068C187.249 12.5961 188.186 12.2408 190.059 12.2408L201.398 12.5315L211.961 12.2408C213.834 12.2408 214.771 12.5961 214.771 13.3068C214.771 14.2112 213.608 14.8573 211.282 15.2449C208.956 15.6972 207.277 16.4401 206.243 17.4738C205.209 18.4429 204.693 20.0257 204.693 22.2223V66.0245C204.693 68.2211 205.306 69.8685 206.534 70.9668C207.826 72.0005 209.667 72.7112 212.058 73.0988C214.383 73.551 215.546 74.1325 215.546 74.8431C215.546 75.6184 214.609 76.006 212.736 76.006L201.398 75.5215Z" fill="white"/>
<path d="M263.353 60.0153C263.353 62.9871 262.61 65.7651 261.125 68.3493C259.639 70.9335 257.41 73.0332 254.438 74.6483C251.466 76.2635 247.719 77.071 243.197 77.071C237.834 77.071 233.506 76.2958 230.211 74.7452C229.177 74.293 228.499 73.7439 228.176 73.0978C227.013 70.6428 226.432 66.928 226.432 61.9534C226.432 61.4366 226.625 60.8551 227.013 60.2091C227.465 59.4984 227.982 59.1431 228.564 59.1431C229.08 59.1431 230.017 61.2751 231.374 65.539C233.247 71.0951 237.608 73.8731 244.456 73.8731C247.751 73.8731 250.368 72.8717 252.306 70.8689C254.244 68.8662 255.213 66.1528 255.213 62.7287C255.213 57.3019 250.303 51.2936 240.483 44.7039C236.542 42.0551 233.506 39.374 231.374 36.6605C229.242 33.9471 228.176 30.62 228.176 26.6791C228.176 24.0302 229.016 21.5429 230.696 19.2172C232.375 16.8268 234.669 14.8886 237.576 13.4027C240.548 11.9168 243.907 11.1738 247.654 11.1738C251.014 11.1738 253.695 11.4969 255.698 12.1429C257.701 12.789 258.863 13.112 259.186 13.112C259.832 13.112 260.317 13.7257 260.64 14.9532C261.028 16.1807 261.286 17.602 261.415 19.2172C261.609 20.7677 261.706 22.1244 261.706 23.2873C261.706 25.0316 261.48 25.9038 261.028 25.9038C259.154 25.9038 258.024 24.9993 257.636 23.1904C257.184 20.4124 255.956 18.2481 253.953 16.6976C251.951 15.147 249.496 14.3718 246.588 14.3718C243.617 14.3718 241.032 15.3409 238.836 17.279C236.704 19.1526 235.638 21.6722 235.638 24.8378C235.638 26.776 236.349 28.6495 237.77 30.4584C239.191 32.2028 240.903 33.8179 242.906 35.3038C244.909 36.7251 246.782 38.0172 248.527 39.1801C258.411 45.576 263.353 52.5211 263.353 60.0153Z" fill="white"/>
<path fill-rule="evenodd" clip-rule="evenodd" d="M227.596 73.3811L227.593 73.3749C226.368 70.7886 225.786 66.9575 225.786 61.954C225.786 61.2783 226.038 60.5806 226.46 59.8773L226.464 59.87L226.469 59.8628C226.982 59.0563 227.672 58.4976 228.564 58.4976C228.851 58.4976 229.068 58.6416 229.198 58.7531C229.336 58.8716 229.458 59.0229 229.564 59.1795C229.779 59.495 230.006 59.9374 230.246 60.4828C230.728 61.5798 231.309 63.2032 231.988 65.3383C232.885 67.9937 234.359 69.9468 236.397 71.2452C238.445 72.5499 241.117 73.2276 244.457 73.2276C247.611 73.2276 250.048 72.2744 251.842 70.4202C253.638 68.5642 254.568 66.0262 254.568 62.7292C254.568 60.2173 253.431 57.499 251.031 54.5617C248.631 51.6254 245.006 48.5168 240.124 45.2409L240.123 45.2406C236.146 42.5672 233.053 39.8425 230.866 37.0602C228.633 34.2171 227.53 30.7437 227.53 26.6796C227.53 23.8848 228.419 21.2681 230.17 18.8428C231.917 16.3583 234.294 14.3553 237.283 12.828L237.288 12.8254L237.288 12.8254C240.36 11.2892 243.82 10.5283 247.655 10.5283C251.047 10.5283 253.803 10.8533 255.897 11.5286C256.895 11.8506 257.677 12.0897 258.245 12.2478C258.53 12.3269 258.756 12.3839 258.924 12.4206C259.009 12.439 259.074 12.4512 259.123 12.4586C259.168 12.4654 259.187 12.4663 259.188 12.4665C259.188 12.4665 259.188 12.4665 259.187 12.4665C259.75 12.4665 260.206 12.7467 260.542 13.1725C260.861 13.576 261.09 14.1281 261.261 14.7741C261.663 16.0509 261.927 17.5122 262.059 19.1518C262.254 20.7147 262.353 22.0945 262.353 23.2878C262.353 24.1738 262.297 24.8946 262.162 25.4123C262.096 25.6684 261.997 25.9287 261.835 26.1374C261.658 26.3651 261.385 26.5504 261.028 26.5504C259.988 26.5504 259.081 26.2983 258.372 25.7305C257.661 25.1619 257.221 24.3352 257.005 23.3263L257.001 23.3106L256.999 23.2947C256.57 20.6587 255.417 18.6479 253.558 17.209C251.685 15.7587 249.375 15.0184 246.589 15.0184C243.772 15.0184 241.34 15.9316 239.264 17.764L239.263 17.7648C237.287 19.5008 236.284 21.8346 236.284 24.8384C236.284 26.6044 236.928 28.3396 238.275 30.0553C239.657 31.7506 241.326 33.3265 243.286 34.7815C245.281 36.1972 247.146 37.4836 248.882 38.6407C258.838 45.0841 264 52.1989 264 60.0158C264 63.101 263.227 65.9901 261.685 68.6719C260.132 71.3731 257.809 73.5522 254.747 75.2165C251.654 76.8975 247.792 77.7176 243.197 77.7176C237.785 77.7176 233.355 76.9371 229.944 75.3341C228.85 74.854 228.017 74.2242 227.599 73.3873L227.596 73.3811ZM230.212 74.7458C233.506 76.2963 237.835 77.0716 243.197 77.0716C247.72 77.0716 251.467 76.264 254.438 74.6489C257.41 73.0338 259.639 70.9341 261.125 68.3499C262.611 65.7657 263.354 62.9877 263.354 60.0158C263.354 52.5216 258.412 45.5766 248.527 39.1807C246.783 38.0178 244.909 36.7257 242.906 35.3044C240.904 33.8185 239.192 32.2033 237.77 30.459C236.349 28.6501 235.638 26.7765 235.638 24.8384C235.638 21.6727 236.704 19.1531 238.836 17.2796C241.033 15.3414 243.617 14.3723 246.589 14.3723C249.496 14.3723 251.951 15.1476 253.954 16.6981C255.957 18.2486 257.184 20.4129 257.636 23.1909C258.024 24.9999 259.155 25.9043 261.028 25.9043C261.48 25.9043 261.707 25.0322 261.707 23.2878C261.707 22.1249 261.61 20.7682 261.416 19.2177C261.287 17.6026 261.028 16.1813 260.641 14.9538C260.318 13.7263 259.833 13.1125 259.187 13.1125C258.864 13.1125 257.701 12.7895 255.698 12.1434C253.696 11.4974 251.014 11.1744 247.655 11.1744C243.908 11.1744 240.548 11.9173 237.577 13.4032C234.669 14.8892 232.376 16.8273 230.696 19.2177C229.016 21.5435 228.177 24.0308 228.177 26.6796C228.177 30.6205 229.243 33.9477 231.374 36.6611C233.506 39.3745 236.543 42.0556 240.484 44.7044C250.304 51.2941 255.214 57.3024 255.214 62.7292C255.214 66.1533 254.245 68.8667 252.307 70.8695C250.368 72.8723 247.752 73.8736 244.457 73.8736C237.609 73.8736 233.248 71.0956 231.374 65.5396C230.018 61.2756 229.081 59.1437 228.564 59.1437C227.983 59.1437 227.466 59.499 227.014 60.2096C226.626 60.8557 226.432 61.4371 226.432 61.954C226.432 66.9286 227.014 70.6434 228.177 73.0984C228.5 73.7444 229.178 74.2936 230.212 74.7458Z" fill="white"/>
<path d="M77.5847 8.20463C69.6891 9.1082 54.4666 9.80395 46.7117 27.851C46.2797 28.8562 45.2817 29.5751 44.216 29.3274C43.0963 29.0672 42.1166 28.5758 41.1758 27.8447C39.3224 26.4045 36.3084 27.1131 36.419 29.4577C36.592 33.126 37.7657 37.2204 41.587 42.3152C41.7873 42.5823 41.9426 42.8868 42.0264 43.21C43.345 48.295 43.657 54.132 50.9632 60.5578C52.4378 61.8548 57.2272 64.7156 62.8734 64.5306C64.8281 64.4665 65.3929 62.1547 64.1132 60.6758C63.0839 59.4862 62.231 58.3178 61.436 57.0147C60.528 55.5263 61.5823 53.9877 63.0486 54.9309C63.276 55.0772 63.5048 55.2345 63.7355 55.4C65.3088 56.5288 67.3601 55.4941 66.2252 53.9252C55.5845 41.4274 58.7415 26.1049 71.4516 17.4809C71.5529 17.4122 71.6627 17.3495 71.7734 17.2971C76.9251 14.86 80.6967 14.9963 83.627 16.1225C85.3374 16.7798 86.4676 16.0798 85.4723 14.5413C84.603 13.1974 83.7375 11.8045 84.0191 10.7501C84.0564 10.6103 84.1312 10.4826 84.2105 10.3615C86.3035 7.16464 87.8244 5.04811 90.7309 2.66556C91.6242 1.93333 91.2594 0.492393 90.1166 0.659918C88.7351 0.862437 87.3075 1.47393 85.503 2.76079L78.7999 7.7216C78.4428 7.98591 78.0262 8.15412 77.5847 8.20463Z" fill="white"/>
<path fill-rule="evenodd" clip-rule="evenodd" d="M90.4573 1.3335C90.4235 1.31051 90.3528 1.27778 90.2104 1.29865C88.9632 1.48147 87.6324 2.03603 85.8828 3.28301L79.1844 8.24041C78.7392 8.5699 78.216 8.78218 77.6583 8.84601C77.2437 8.89345 76.8108 8.94023 76.3615 8.98877C72.4965 9.40638 67.4203 9.95484 62.3564 12.1896C56.7358 14.67 51.1149 19.24 47.3054 28.1056C46.7932 29.2973 45.5359 30.2969 44.0699 29.9562C42.8492 29.6725 41.7856 29.1362 40.7795 28.3544C40.0203 27.7644 39.0206 27.619 38.2459 27.8504C37.5014 28.0729 37.0258 28.6072 37.0644 29.4268C37.2308 32.9547 38.3533 36.9264 42.1039 41.9271C42.3484 42.2531 42.5444 42.6329 42.6519 43.0473C42.8493 43.8088 43.0237 44.5802 43.2004 45.3622C44.219 49.8704 45.3174 54.7314 51.39 60.0722C52.7735 61.2891 57.409 64.0627 62.8523 63.8844C63.5293 63.8622 63.9329 63.4759 64.0862 62.9518C64.2478 62.3996 64.1265 61.6779 63.6247 61.098C62.5725 59.8819 61.6984 58.6847 60.8846 57.3506C60.3284 56.4389 60.3071 55.39 60.8318 54.6774C61.0977 54.3162 61.495 54.0647 61.9736 54.0073C62.4464 53.9507 62.9361 54.0899 63.3982 54.3871C63.6368 54.5406 63.8749 54.7043 64.1122 54.8746C64.726 55.315 65.3645 55.2846 65.6835 55.1083C65.8337 55.0253 65.8872 54.9305 65.9017 54.8546C65.9163 54.7784 65.9134 54.6036 65.7155 54.3226C60.2985 47.9494 58.3642 40.8154 59.4442 34.1466C60.5243 27.4774 64.6072 21.3438 71.089 16.9458C71.2178 16.8584 71.3565 16.7792 71.4972 16.7126C76.7833 14.212 80.7393 14.3201 83.8588 15.5189C84.2322 15.6624 84.5461 15.7206 84.7824 15.7226C85.0258 15.7246 85.1376 15.668 85.1713 15.6421C85.172 15.6416 85.1728 15.641 85.1736 15.6404C85.1832 15.6338 85.2007 15.6217 85.1987 15.5466C85.1957 15.4367 85.1428 15.2207 84.93 14.8917C84.4991 14.2255 84.0378 13.5009 83.7245 12.8004C83.4176 12.1143 83.1954 11.3303 83.395 10.5829C83.4605 10.3378 83.5843 10.1381 83.6701 10.0072C85.7742 6.79328 87.3381 4.61099 90.3215 2.16544C90.5685 1.96297 90.6183 1.68557 90.5659 1.50138C90.5406 1.41233 90.497 1.36047 90.4573 1.3335ZM91.8089 1.1483C92.0013 1.82576 91.7869 2.63494 91.1406 3.16471C88.311 5.48425 86.833 7.53501 84.7511 10.7149C84.6783 10.8261 84.6526 10.8817 84.6434 10.9163C84.5614 11.2234 84.6312 11.663 84.904 12.2729C85.1704 12.8684 85.5765 13.5122 86.0149 14.1899C86.2997 14.6301 86.4787 15.0785 86.4903 15.512C86.5027 15.9739 86.3207 16.3891 85.9574 16.6675C85.6193 16.9268 85.1899 17.0181 84.7715 17.0146C84.346 17.011 83.8771 16.9102 83.3953 16.725C80.6543 15.6716 77.0672 15.5071 72.0497 17.8806C71.9691 17.9188 71.8882 17.965 71.8144 18.0151C65.5862 22.241 61.7355 28.0807 60.7197 34.3532C59.705 40.6187 61.5071 47.3865 66.7172 53.5059L66.7337 53.5254L66.7487 53.5461C67.1047 54.0382 67.2706 54.5749 67.1709 55.097C67.0708 55.6211 66.7259 56.0085 66.3085 56.2392C65.4923 56.6903 64.3185 56.6129 63.359 55.9245C63.135 55.7638 62.9154 55.6129 62.6992 55.4738C62.4281 55.2994 62.2362 55.2772 62.1273 55.2903C62.0242 55.3026 61.9397 55.3519 61.8723 55.4435C61.7302 55.6364 61.6358 56.1011 61.9876 56.6777C62.7637 57.9499 63.5955 59.0895 64.6019 60.2526C65.3798 61.1516 65.6159 62.3253 65.3263 63.3147C65.0285 64.3323 64.1723 65.1339 62.8946 65.1758C57.0456 65.3674 52.1023 62.4195 50.5366 61.0425C44.1348 55.412 42.9532 50.1596 41.9314 45.6175C41.7583 44.848 41.5897 44.0988 41.4012 43.3717C41.341 43.1397 41.2265 42.9106 41.0703 42.7024C37.1783 37.5133 35.9534 33.2964 35.7738 29.4877C35.7018 27.9626 36.6779 26.9704 37.8761 26.6124C39.0442 26.2634 40.4782 26.4839 41.5723 27.3341C42.4479 28.0145 43.3437 28.4609 44.3624 28.6976C45.0277 28.8523 45.7664 28.4141 46.1182 27.5954C50.0635 18.414 55.9314 13.6126 61.8347 11.0075C67.0939 8.68658 72.3691 8.11866 76.2249 7.70355C76.6737 7.65523 77.1033 7.60898 77.5114 7.56228C77.8366 7.52507 78.1467 7.40095 78.4157 7.20181L85.1233 2.23761L85.128 2.2343C86.9852 0.909872 88.5082 0.242259 90.023 0.0202076C90.4521 -0.0426855 90.8555 0.0418792 91.1836 0.264825C91.5058 0.483798 91.7118 0.806525 91.8089 1.1483ZM57.4328 29.944C57.4614 29.4504 56.8537 29.1046 56.4154 29.5085L51.5806 33.9641C51.3182 34.2059 50.9095 34.1892 50.6677 33.9268C50.4259 33.6644 50.4426 33.2557 50.705 33.0139L55.5398 28.5583C56.7574 27.4362 58.8246 28.2645 58.7227 30.0189C58.4749 34.2859 57.3389 39.4903 52.1499 43.2445C51.8608 43.4537 51.4569 43.3889 51.2478 43.0998C51.0386 42.8107 51.1034 42.4068 51.3925 42.1977C56.1232 38.7751 57.1946 34.0449 57.4328 29.944Z" fill="#4B455A"/>
<path d="M71.8198 30.7741C71.0914 30.5766 70.3509 30.8557 69.8383 32.0896C69.554 32.7741 69.0334 33.3443 68.6334 33.9681C67.986 34.9776 68.754 36.1705 69.9735 36.4595C70.2437 36.5236 70.525 36.4838 70.7933 36.4119L71.9357 36.1058C72.8951 37.0334 73.4478 36.8854 74.5531 36.5892L85.8606 33.5593C85.9858 33.5258 86.1161 33.5013 86.245 33.4875C93.6935 32.6906 96.7431 34.4633 98.9897 37.1496C100.366 38.7958 102.28 43.7611 98.1467 43.7261C97.9899 43.7248 97.8299 43.7005 97.6773 43.6642L94.4555 42.897C94.014 42.7919 93.6717 43.2812 93.9217 43.6599L93.9476 43.6992C94.3471 44.3042 93.9677 45.118 93.2474 45.201L93.1002 45.2179C92.6735 45.2671 92.5635 45.8362 92.9411 46.0408C93.5511 46.3714 93.5556 47.2452 92.949 47.582L92.8079 47.6603C92.3941 47.89 92.5243 48.5153 92.9955 48.5592C95.8054 48.8211 97.7109 48.8624 99.3642 48.1522C100.7 47.5785 102.47 47.4874 103.052 48.8197C103.557 49.9767 103.481 51.0626 103.107 52.5139C102.351 55.4413 101.242 58.8187 98.2552 57.8418L93.6971 55.9356C93.2908 55.7657 92.9067 56.2188 93.1407 56.5918C93.5242 57.2031 93.0707 57.995 92.3494 57.9736L92.0508 57.9648C91.5446 57.9498 91.3128 58.5896 91.7112 58.9024L92.0699 59.184C92.5504 59.5611 92.4388 60.3177 91.8698 60.54C91.479 60.6927 91.5648 61.2689 91.9831 61.3011L96.8155 61.6735C98.7118 61.8196 99.83 63.9092 98.8711 65.5516C95.3347 71.6084 91.2898 76.8247 79.8426 77.1103C76.1245 77.1217 61.0739 75.2152 51.9105 65.9362C51.4137 65.4331 50.5253 65.9186 50.7922 66.5734C52.6303 71.0834 55.7919 74.2388 62.7696 78.0399C63.402 78.3844 63.812 79.0198 64.2656 79.5791C64.5591 79.941 64.9366 80.1846 65.3537 80.3036C66.0813 80.5112 66.8298 80.7991 67.4614 81.2156C67.4964 81.2387 67.5314 81.2601 67.5665 81.2798C68.502 81.8054 69.9742 82.2252 71.047 82.2491C71.8253 82.2664 72.594 82.3044 73.2503 82.7232C73.6762 82.995 74.0307 83.0843 74.3724 83.0286C75.1909 82.8951 76.1486 83.2651 76.9773 83.2323C77.8426 83.1981 78.565 83.0663 79.4307 83.0888C79.4986 83.0906 79.5645 83.0853 79.6289 83.0736C80.5429 82.9068 81.4979 82.7488 82.4268 82.7291C82.5659 82.7261 82.6991 82.7025 82.8281 82.6629C83.786 82.3687 84.7377 82.485 85.7281 82.6379C85.8173 82.6517 85.9028 82.6538 85.9851 82.6448C87.3364 82.4969 88.5391 81.5315 89.8215 81.9823C90.5225 82.2288 91.0075 82.2146 91.4263 81.9786C92.5005 81.3732 93.6141 80.8495 94.8421 80.9602C95.6246 81.0307 96.1757 80.8371 96.5845 80.4517C97.6211 79.4748 98.7781 78.5566 100.2 78.4695C100.988 78.4212 101.558 78.1638 101.967 77.6816C102.964 76.5078 104.252 75.6899 105.695 75.154C105.927 75.0681 106.099 74.9321 106.221 74.74C107.157 73.2573 108.01 71.7594 109.629 71.0876C110.195 70.8527 110.522 70.4601 110.627 69.884C110.923 68.2637 111.662 66.7625 113.082 65.9275C113.817 65.4951 114.02 64.9043 113.894 63.9881C113.708 62.6339 114.329 61.363 115.406 60.5209C116.425 59.7238 116.526 58.7887 116.06 57.1361C115.773 56.1169 116.075 55.0409 116.698 54.1846C118.051 52.3249 117.852 50.4469 116.571 48.4631C115.994 47.5696 115.873 46.4542 116.226 45.4509C116.934 43.4391 116.535 42.1053 115.133 40.8013C114.248 39.9773 113.871 38.7493 114.065 37.5554C114.429 35.3169 113.362 34.2305 110.97 33.399C109.82 32.9993 109.032 31.9418 108.909 30.7309C108.485 26.5847 106.095 26.0892 102.538 26.1C101.725 26.1025 100.965 25.7307 100.418 25.1293C99.18 23.7672 97.7908 22.8557 95.0488 22.4029C94.5609 22.3223 94.0965 22.1265 93.7164 21.81L93.0989 21.2958C92.6888 20.9544 92.3388 20.489 91.8736 20.2275C91.0151 19.7449 89.4128 19.4403 88.2545 21.0605C87.8384 21.6427 87.3271 22.171 86.6866 22.4899C82.8969 24.3771 80.2067 28.44 74.8454 31.0328C73.8993 31.4903 72.8341 31.0491 71.8198 30.7741Z" fill="white"/>
<path fill-rule="evenodd" clip-rule="evenodd" d="M90.2417 20.4989C89.7789 20.5457 89.2545 20.7736 88.7803 21.4369C88.3306 22.066 87.7451 22.6853 86.9747 23.0689C85.3402 23.8829 83.9158 25.1241 82.2897 26.5411C82.1217 26.6874 81.9516 26.8356 81.7789 26.9855C79.9552 28.5675 77.8888 30.2794 75.1268 31.6151C74.4848 31.9256 73.829 31.9148 73.2494 31.8156C72.8513 31.7475 72.4273 31.6232 72.0538 31.5137C71.9106 31.4717 71.7749 31.4319 71.6509 31.3983C71.4216 31.3361 71.2387 31.3572 71.0749 31.4532C70.8964 31.5577 70.6587 31.7998 70.4351 32.3381C70.2653 32.747 70.0312 33.107 69.8075 33.4244C69.7234 33.5438 69.644 33.653 69.5681 33.7574C69.4287 33.9491 69.3011 34.1246 69.1774 34.3175C68.9971 34.5986 69.0074 34.8896 69.1643 35.1638C69.3312 35.4554 69.6708 35.7244 70.1226 35.8315C70.2401 35.8594 70.3989 35.8495 70.6263 35.7885L71.6397 35.517C74.8511 32.9979 78.8991 31.9133 83.1062 30.7861L83.1812 30.766C83.5259 30.6736 83.8801 30.8782 83.9725 31.2228C84.0648 31.5675 83.8603 31.9217 83.5157 32.0141C79.4952 33.0913 75.9061 34.0618 73.0165 36.1024C73.1073 36.1401 73.1859 36.157 73.2578 36.1646C73.51 36.1913 73.797 36.1236 74.3861 35.9658L85.6936 32.936C85.8503 32.894 86.0134 32.8632 86.1764 32.8458C89.9542 32.4416 92.6827 32.6809 94.7785 33.4021C96.8912 34.1291 98.3076 35.3273 99.4855 36.7358C100.244 37.6434 101.13 39.4167 101.278 41.0093C101.352 41.8107 101.249 42.6734 100.725 43.3435C100.182 44.0372 99.3031 44.3827 98.1414 44.3728C97.9239 44.371 97.7141 44.3377 97.5279 44.2933L94.6268 43.6026C95.0002 44.4705 94.536 45.4854 93.6411 45.7745C94.2167 46.3887 94.1816 47.3934 93.5316 47.9594C96.0788 48.1795 97.7117 48.1596 99.1094 47.5593C99.8474 47.2423 100.737 47.0426 101.559 47.1294C102.4 47.2182 103.234 47.624 103.644 48.5618C104.234 49.9126 104.122 51.1679 103.732 52.676C103.357 54.1285 102.869 55.8127 102.051 57.0076C101.635 57.6151 101.105 58.1408 100.417 58.4294C99.7167 58.7236 98.925 58.7412 98.0546 58.4565L98.03 58.4485L93.8857 56.7154C94.1082 57.6395 93.4208 58.6091 92.398 58.6207L92.469 58.6764C93.1341 59.1985 93.1753 60.1203 92.7008 60.7091L96.8653 61.03C99.2272 61.212 100.634 63.8153 99.4292 65.8781C97.6522 68.9215 95.7015 71.8388 92.7035 74.0184C89.6921 76.2077 85.6845 77.6115 79.8589 77.7568L79.8519 77.757L79.8448 77.757C77.9148 77.7629 73.1585 77.2777 67.7306 75.6259C62.3017 73.9737 56.1363 71.1352 51.451 66.3908C51.4417 66.3814 51.4358 66.3783 51.4338 66.3774C51.4314 66.3763 51.4285 66.3753 51.4241 66.3749C51.4199 66.3744 51.4147 66.3746 51.4091 66.3754C53.171 70.668 56.1913 73.7212 63.0788 77.4732C63.4891 77.6968 63.808 78.0041 64.0707 78.3038C64.23 78.4855 64.3967 78.6998 64.5466 78.8924C64.6263 78.9947 64.7011 79.0909 64.7676 79.1728C64.9775 79.4317 65.2417 79.6004 65.5312 79.683C66.2916 79.9 67.1094 80.2101 67.8172 80.677C67.84 80.692 67.862 80.7054 67.8831 80.7172C68.7313 81.1937 70.1002 81.5825 71.0615 81.6038C71.8224 81.6208 72.7693 81.6504 73.598 82.1793C73.9384 82.3965 74.1324 82.4138 74.2686 82.3916C74.7943 82.3059 75.3354 82.3849 75.7739 82.4555C75.826 82.4639 75.8767 82.4722 75.9262 82.4803C76.3323 82.5465 76.6552 82.5992 76.952 82.5874C77.2783 82.5745 77.5795 82.5473 77.8945 82.5189C77.9779 82.5114 78.0622 82.5038 78.1482 82.4963C78.5518 82.4613 78.9778 82.4314 79.4477 82.4436C79.471 82.4442 79.4924 82.4425 79.5132 82.4387C80.428 82.2718 81.4278 82.1048 82.4132 82.0839C82.4869 82.0823 82.5608 82.0699 82.6386 82.046C83.7539 81.7035 84.8414 81.8479 85.8269 82.0001C85.8637 82.0058 85.8923 82.0057 85.915 82.0032C86.3432 81.9564 86.7321 81.8199 87.1872 81.6603C87.3573 81.6006 87.5366 81.5376 87.7307 81.4749C88.389 81.2623 89.1849 81.0743 90.036 81.3735C90.6379 81.5852 90.912 81.5276 91.1093 81.4164C92.189 80.8079 93.457 80.1873 94.9003 80.3174C95.5338 80.3745 95.891 80.2185 96.1416 79.9822C97.1792 79.0043 98.4864 77.9279 100.16 77.8253C100.816 77.7851 101.205 77.5827 101.475 77.2642C102.556 75.991 103.943 75.116 105.471 74.549C105.581 74.5079 105.636 74.4575 105.674 74.3957C105.742 74.2887 105.81 74.18 105.879 74.0702C106.721 72.7218 107.672 71.2008 109.382 70.4915C109.758 70.3355 109.928 70.1163 109.992 69.7686C110.306 68.0449 111.113 66.3366 112.755 65.3713C113.028 65.2106 113.149 65.0549 113.212 64.8993C113.28 64.7283 113.31 64.4778 113.254 64.0769C113.032 62.4587 113.781 60.9726 115.008 60.0126C115.417 59.6931 115.592 59.3927 115.654 59.0387C115.723 58.6451 115.664 58.1129 115.439 57.312C115.085 56.0568 115.467 54.7792 116.176 53.8052C116.777 52.9784 117.011 52.1851 116.977 51.3986C116.943 50.5993 116.63 49.7449 116.029 48.8143C115.341 47.7489 115.199 46.4243 115.617 45.2371C115.944 44.3078 115.99 43.6054 115.844 43.0176C115.697 42.4301 115.337 41.8739 114.694 41.2749C113.638 40.2923 113.201 38.8423 113.428 37.4523C113.59 36.4564 113.421 35.8257 113.045 35.3519C112.642 34.8433 111.92 34.414 110.758 34.0099C109.356 33.5223 108.414 32.2412 108.266 30.7972C108.067 28.8494 107.43 27.9167 106.572 27.4148C105.646 26.8729 104.326 26.7413 102.54 26.7467C101.525 26.7498 100.596 26.286 99.9405 25.5646C98.8027 24.3131 97.5463 23.4708 94.9438 23.0409C94.3564 22.9439 93.7819 22.7057 93.3032 22.3072L92.6857 21.793C92.5113 21.6478 92.3377 21.4747 92.1902 21.3276C92.1426 21.2802 92.0977 21.2354 92.0564 21.1952C91.8674 21.0112 91.7131 20.8789 91.5572 20.7913C91.2143 20.5986 90.7318 20.4493 90.2417 20.4989ZM51.3717 66.3912C51.3716 66.3912 51.3719 66.391 51.3724 66.3905ZM92.1103 58.3948C92.1102 58.3947 92.1104 58.3949 92.1103 58.3948ZM93.1743 45.8604L93.175 45.8603ZM94.4792 43.3489C94.4792 43.3489 94.4792 43.3489 94.4792 43.3489ZM71.7644 36.8213L70.9607 37.0366C70.6515 37.1195 70.2477 37.1891 69.8247 37.0888C69.0571 36.9069 68.403 36.435 68.0428 35.8055C67.6727 35.1587 67.6226 34.3484 68.0897 33.62C68.2329 33.3968 68.3999 33.1667 68.5529 32.9559C68.6233 32.859 68.6906 32.7663 68.7513 32.6801C68.9591 32.3853 69.1274 32.118 69.2419 31.8425C69.5308 31.1469 69.9197 30.6324 70.4217 30.3383C70.9384 30.0356 71.49 30.0159 71.989 30.1512C72.1704 30.2004 72.3388 30.2499 72.4994 30.297C72.8405 30.3972 73.1464 30.4871 73.4673 30.542C73.9104 30.6178 74.2603 30.5989 74.5643 30.4519C77.1638 29.1948 79.1231 27.5789 80.9322 26.0094C81.1071 25.8577 81.2811 25.7059 81.4545 25.5546C83.0541 24.1592 84.6068 22.8047 86.3988 21.9123C86.9095 21.6579 87.3466 21.2207 87.7292 20.6855C88.4132 19.7285 89.269 19.2986 90.1116 19.2133C90.9268 19.1308 91.6747 19.3751 92.1904 19.665C92.4997 19.8389 92.753 20.0701 92.9578 20.2694C93.0241 20.334 93.084 20.3937 93.1401 20.4496C93.2739 20.583 93.3861 20.6948 93.5125 20.8L94.13 21.3142C94.4114 21.5485 94.7658 21.7019 95.1543 21.7661C98.0357 22.242 99.5575 23.2226 100.897 24.6954C101.334 25.1768 101.926 25.4565 102.536 25.4546C104.307 25.4492 105.961 25.56 107.225 26.2996C108.557 27.0793 109.327 28.4675 109.552 30.6658C109.652 31.6437 110.285 32.4775 111.182 32.7894C112.412 33.2168 113.42 33.7464 114.057 34.5485C114.722 35.3855 114.905 36.4172 114.703 37.6598C114.541 38.6577 114.859 39.6636 115.574 40.3291C116.331 41.034 116.871 41.7967 117.098 42.705C117.324 43.6131 117.217 44.5835 116.836 45.666C116.547 46.4854 116.648 47.3917 117.114 48.1132C117.794 49.1664 118.221 50.2429 118.268 51.3434C118.316 52.4568 117.972 53.5324 117.221 54.5653C116.683 55.304 116.462 56.1783 116.682 56.9615C116.922 57.8133 117.047 58.5749 116.927 59.2613C116.8 59.9872 116.415 60.5528 115.804 61.0304C114.878 61.7548 114.384 62.8104 114.534 63.9007C114.605 64.4159 114.596 64.919 114.411 65.3805C114.219 65.8574 113.872 66.2134 113.41 66.4851C112.211 67.1897 111.54 68.4837 111.263 70.0007C111.116 70.8052 110.634 71.3711 109.877 71.685C108.564 72.2297 107.826 73.402 106.926 74.8326C106.874 74.9161 106.821 75.0004 106.767 75.0855C106.563 75.408 106.272 75.6297 105.92 75.7604C104.561 76.2651 103.372 77.0259 102.46 78.1004C101.912 78.7461 101.161 79.0585 100.239 79.115C99.0701 79.1866 98.0633 79.9467 97.0278 80.9225C96.4607 81.4571 95.7158 81.6882 94.7843 81.6043C93.7714 81.513 92.8123 81.9398 91.7437 82.5421C91.1034 82.9029 90.4075 82.8738 89.6074 82.5925C89.1761 82.4408 88.7294 82.5102 88.1279 82.7045C88.0039 82.7445 87.8688 82.7921 87.725 82.8428C87.2353 83.0153 86.6454 83.2231 86.0556 83.2876C85.9137 83.3032 85.7714 83.2989 85.6297 83.2771C84.6344 83.1234 83.8185 83.0353 83.0179 83.2811C82.8378 83.3365 82.6454 83.3713 82.4407 83.3757C81.5683 83.3942 80.6583 83.5432 79.7451 83.7098C79.6369 83.7295 79.5265 83.7382 79.4141 83.7353C79.0183 83.725 78.6502 83.7497 78.2598 83.7836C78.1833 83.7902 78.1052 83.7973 78.0257 83.8045C77.7072 83.8333 77.3652 83.8642 77.0031 83.8785C76.5653 83.8959 76.1029 83.8194 75.7175 83.7556C75.6664 83.7472 75.6166 83.739 75.5685 83.7312C75.1164 83.6584 74.7694 83.6191 74.4765 83.6669C73.9293 83.7561 73.4143 83.5949 72.9029 83.2685C72.4191 82.9598 71.8286 82.9133 71.0328 82.8956C69.8484 82.8693 68.2731 82.4184 67.2502 81.8437C67.2013 81.8162 67.1532 81.7868 67.1059 81.7556C66.5506 81.3894 65.8713 81.1238 65.1766 80.9256C64.6318 80.7701 64.141 80.4516 63.764 79.9867C63.6599 79.8584 63.5703 79.7427 63.4855 79.6333C63.3568 79.4672 63.2392 79.3154 63.099 79.1555C62.8852 78.9115 62.6828 78.7289 62.4607 78.6079C55.417 74.7708 52.1111 71.5214 50.1941 66.8179C49.9147 66.1323 50.2705 65.5255 50.7497 65.2574C51.215 64.9971 51.8878 64.9942 52.3704 65.4829C56.8485 70.0174 62.7901 72.7717 68.1068 74.3897C73.4176 76.0059 78.0405 76.4692 79.8338 76.465C85.4514 76.3238 89.1878 74.9769 91.9437 72.9733C94.714 70.9592 96.5539 68.2399 98.3133 65.2266C99.0269 64.0044 98.1968 62.4285 96.766 62.3183L91.9337 61.9459C90.8307 61.8609 90.6045 60.3415 91.6349 59.9389C91.7382 59.8986 91.7584 59.7613 91.6712 59.6928L91.3124 59.4112C90.4237 58.7136 90.9408 57.2862 92.0702 57.3197L92.3687 57.3285C92.5737 57.3346 92.7026 57.1095 92.5936 56.9358C92.0245 56.0287 92.9586 54.9271 93.9465 55.3403L98.4798 57.236C99.0909 57.4312 99.5507 57.3919 99.917 57.2381C100.301 57.0767 100.655 56.7583 100.985 56.2776C101.657 55.2962 102.1 53.828 102.481 52.3531C102.841 50.9586 102.88 50.0421 102.46 49.0789C102.287 48.6843 101.946 48.4695 101.423 48.4143C100.881 48.3571 100.217 48.4897 99.6194 48.7465C97.7956 49.5298 95.7321 49.4638 92.9358 49.2032C91.8278 49.0999 91.5289 47.6321 92.4946 47.0961L92.6356 47.0178C92.7963 46.9286 92.7951 46.6971 92.6335 46.6095C91.7007 46.1041 91.9724 44.6982 93.0264 44.5768L93.1737 44.5598C93.4154 44.532 93.5427 44.2589 93.4087 44.0558L93.3828 44.0166C92.8101 43.1492 93.5942 42.0285 94.6053 42.2692L97.8272 43.0363C97.946 43.0646 98.0563 43.0799 98.1524 43.0808C99.0571 43.0884 99.4887 42.8264 99.7068 42.5475C99.9434 42.245 100.051 41.7699 99.9911 41.1286C99.8713 39.8358 99.1119 38.3033 98.4943 37.5647C97.4256 36.2869 96.1939 35.2556 94.358 34.6239C92.5052 33.9863 89.9846 33.7378 86.3139 34.1305C86.2191 34.1407 86.1218 34.1589 86.028 34.184L74.7205 37.2139C74.6989 37.2197 74.6771 37.2255 74.6554 37.2314C74.1588 37.3648 73.6396 37.5043 73.1219 37.4496C72.6321 37.3977 72.2019 37.1861 71.7644 36.8213ZM100.283 74.2164C100.053 74.4409 99.8251 74.6647 99.5977 74.8879L98.6925 73.966C98.9064 73.7559 99.1206 73.5459 99.335 73.3358C103.469 69.2841 107.656 65.1799 110.227 60.012C112.908 54.6219 113.846 48.0304 110.924 39.0829L112.152 38.6818C115.171 47.927 114.227 54.8715 111.384 60.5874C108.713 65.957 104.379 70.2027 100.283 74.2164Z" fill="#464057"/>
</svg>
